<svg width="58" height="58" viewBox="0 0 58 58" fill="none" xmlns="http://www.w3.org/2000/svg">
<g clip-path="url(#clip0_49_482)">
<path d="M57.7102 17.4002L54.5388 14.2288C54.4905 14.1183 54.4202 14.0136 54.3268 13.9202C54.2335 13.8269 54.1287 13.7565 54.0183 13.7083L40.6002 0.290216C40.2136 -0.0964131 39.6336 -0.0964131 39.2468 0.290216L0.290216 39.2468C-0.0964131 39.6335 -0.0964131 40.2135 0.290216 40.6002L17.4002 57.7102C17.5936 57.9036 17.7868 58.0002 18.0768 58.0002C18.3668 58.0002 18.5602 57.9036 18.7535 57.7102L57.7102 18.7536C58.0968 18.3668 58.0968 17.7868 57.7102 17.4002ZM18.0768 55.6802L16.0468 53.6502L23.5868 46.1102C23.9735 45.7236 23.9735 45.1436 23.5868 44.7568C23.2002 44.3702 22.6202 44.3702 22.2335 44.7568L14.6935 52.2968L12.5668 50.1702L15.2735 47.4636C15.6601 47.077 15.6601 46.497 15.2735 46.1102C14.8868 45.7235 14.3068 45.7236 13.9201 46.1102L11.2135 48.8168L9.18347 46.7868L16.7235 39.2468C17.1101 38.8602 17.1101 38.2802 16.7235 37.8935C16.3368 37.5068 15.7568 37.5068 15.3701 37.8935L7.8301 45.4335L5.8001 43.4035L16.7235 32.4801C17.1101 32.0935 17.1101 31.5135 16.7235 31.1267C16.3368 30.74 15.7568 30.7401 15.3701 31.1267L4.44684 42.0502L2.32022 39.9236L39.9236 2.32022L45.4336 7.83022L38.5702 14.6936C38.1836 15.0802 38.1836 15.6602 38.5702 16.047C38.7636 16.2403 38.9568 16.337 39.2468 16.337C39.5368 16.337 39.7302 16.2403 39.9235 16.047L46.7868 9.18359L48.8652 11.262L46.1102 14.017C45.7236 14.4036 45.7236 14.9836 46.1102 15.3703C46.3036 15.5637 46.4968 15.6603 46.7868 15.6603C47.0768 15.6603 47.2702 15.5637 47.4635 15.3703L50.2185 12.6153L52.2485 14.6453L48.1401 18.7537C47.7535 19.1403 47.7535 19.7203 48.1401 20.1071C48.3335 20.3004 48.5267 20.3971 48.8167 20.3971C49.1067 20.3971 49.3001 20.3004 49.4934 20.1071L53.6017 15.9987L55.6801 18.0771L18.0768 55.6802Z" fill="#4CB848"/>
<path d="M20.7834 27.9366C21.0734 27.9366 21.3634 27.84 21.46 27.6466L30.3534 18.7532C30.74 18.3666 30.74 17.7866 30.3534 17.3999C29.9667 17.0131 29.3867 17.0132 29 17.3999L20.1066 26.2932C19.72 26.6799 19.72 27.2599 20.1066 27.6466C20.3 27.84 20.4934 27.9366 20.7834 27.9366Z" fill="#4CB848"/>
<path d="M33.1567 15.6601C33.35 15.6601 33.64 15.5634 33.8333 15.3701L40.0199 9.18342C40.4065 8.7968 40.4065 8.2168 40.0199 7.83005C39.6333 7.44331 39.0533 7.44342 38.6665 7.83005L32.4799 14.0167C32.0933 14.4033 32.0933 14.9833 32.4799 15.3701C32.6734 15.5634 32.8667 15.6601 33.1567 15.6601Z" fill="#4CB848"/>
<path d="M35.8634 17.4L30.3534 22.91C29.9668 23.2966 29.9668 23.8766 30.3534 24.2633C30.5468 24.4567 30.7401 24.5533 31.0301 24.5533C31.3201 24.5533 31.6101 24.4567 31.7067 24.2633L37.2167 18.7533C37.6033 18.3667 37.6033 17.7867 37.2167 17.4C36.8301 17.0133 36.2501 17.0133 35.8634 17.4Z" fill="#4CB848"/>
<path d="M37.8933 23.49C38.0867 23.6834 38.28 23.78 38.57 23.78C38.86 23.78 39.0533 23.6834 39.2466 23.49L44.08 18.6566C44.4666 18.27 44.4666 17.69 44.08 17.3033C43.6933 16.9166 43.1133 16.9166 42.7266 17.3033L37.8932 22.1366C37.5066 22.5234 37.5066 23.1034 37.8933 23.49Z" fill="#4CB848"/>
<path d="M26.2934 35.1866C25.5201 34.4132 24.3601 34.4132 23.5868 35.1866C22.8136 35.96 22.8135 37.12 23.5868 37.8932C24.3602 38.6665 25.5202 38.6666 26.2934 37.8932C27.0667 37.1199 27.0667 35.96 26.2934 35.1866Z" fill="#4CB848"/>
<path d="M28.3233 27.6467C28.71 27.2601 28.71 26.6801 28.3233 26.2933C27.9367 25.9066 27.3567 25.9067 26.97 26.2933L20.7833 32.4799C19.2367 34.0266 18.7533 37.4099 20.2033 39.9233L18.0766 42.0501C17.69 42.4367 17.69 43.0167 18.0766 43.4034C18.27 43.5968 18.4632 43.6934 18.7532 43.6934C19.0432 43.6934 19.2366 43.5968 19.5266 43.3068L22.2332 40.6002C22.6199 40.3102 22.6199 39.7302 22.3299 39.3435C20.8799 37.6035 21.2665 34.8002 22.2332 33.8335L28.3233 27.6467Z" fill="#4CB848"/>
<path d="M29.6767 33.06L35.8634 26.8733C36.25 26.4867 36.25 25.9067 35.8634 25.52C35.4767 25.1333 34.8967 25.1333 34.51 25.52L27.6466 32.3833C27.4533 32.5767 27.3566 32.77 27.3566 33.06C27.3566 33.35 27.4533 33.5433 27.6466 33.7366C28.2266 34.3166 28.9033 35.2832 29 36.3466C29.0966 37.3132 28.6134 38.28 27.6466 39.2466L25.6166 41.2766C25.23 41.6632 25.23 42.2432 25.6166 42.63C25.81 42.8233 26.0033 42.92 26.2933 42.92C26.5833 42.92 26.7766 42.8233 26.9699 42.5333L28.9999 40.5033C30.3533 39.15 31.0299 37.7 30.9333 36.1533C30.8367 35.09 30.4501 34.0266 29.6767 33.06Z" fill="#4CB848"/>
<path d="M40.02 26.9699L33.1567 33.8333C32.77 34.2199 32.77 34.7999 33.1567 35.1867C33.35 35.3801 33.5433 35.4767 33.8333 35.4767C34.0267 35.4767 34.3167 35.3801 34.5099 35.1867L41.3733 28.3233C41.7599 27.9367 41.7599 27.3567 41.3733 26.9699C40.9867 26.5832 40.4067 26.5833 40.02 26.9699Z" fill="#4CB848"/>
<path d="M44.7566 22.2334L43.4033 23.5868C43.0166 23.9734 43.0166 24.5534 43.4033 24.9402C43.5966 25.1335 43.7899 25.2302 44.0799 25.2302C44.2733 25.2302 44.5633 25.1335 44.7565 24.9402L46.1099 23.5868C46.4965 23.2002 46.4965 22.6202 46.1099 22.2334C45.7234 21.8467 45.1434 21.8467 44.7566 22.2334Z" fill="#4CB848"/>
</g>
<defs>
<clipPath id="clip0_49_482">
<rect width="58" height="58" fill="white"/>
</clipPath>
</defs>
</svg>
