<svg width="57" height="57" viewBox="0 0 57 57" fill="none" xmlns="http://www.w3.org/2000/svg">
<g clip-path="url(#clip0_47_121)">
<path d="M54.0057 37.0898C52.7078 34.8308 49.8314 34.0404 47.5617 35.3202L36.3421 41.0401C35.7233 40.3272 34.9051 39.8165 33.9931 39.5729L22.248 36.4279C21.3495 36.1853 20.3995 36.2141 19.5167 36.5095L15.4848 37.8538C15.194 37.9503 14.8892 38 14.5826 38H11.4V34.2H0V36.1H9.5V55.1H0V57H11.4V54.15H12.8324C13.0653 54.15 13.2972 54.1787 13.5231 54.2353L20.2149 55.9075C20.592 56.0022 20.9789 56.05 21.3676 56.05H29.3827C30.2163 56.0504 31.0355 55.831 31.7577 55.4145L52.2699 43.5729C53.7362 42.7226 54.6408 41.158 54.6449 39.463C54.6459 38.6294 54.4251 37.8102 54.0057 37.0898ZM51.319 41.9271L30.8068 53.77C30.3731 54.0191 29.8819 54.15 29.3818 54.15H21.3676C21.1347 54.15 20.9028 54.1212 20.6769 54.0646L13.9851 52.3924C13.608 52.2977 13.2211 52.25 12.8324 52.25H11.4V39.9H14.5835C15.0942 39.9 15.6017 39.8178 16.0864 39.6569L20.1179 38.3126C20.6472 38.1349 21.2173 38.1178 21.7558 38.263L33.5019 41.4094C35.0206 41.8236 35.9158 43.3906 35.5016 44.9093C35.0874 46.428 33.5204 47.3232 32.0017 46.909L23.024 44.758L22.5815 46.607L31.5332 48.751C33.2152 49.2014 35.0085 48.6953 36.2071 47.4327C37.4053 46.17 37.8172 44.3526 37.2801 42.6966L48.4681 36.9901C49.3508 36.4854 50.4349 36.4877 51.3153 36.9961C52.1957 37.505 52.7398 38.4434 52.7431 39.4602C52.7412 40.4775 52.199 41.4168 51.319 41.9271Z" fill="#4CB848"/>
<path d="M36.0999 15.2C29.8039 15.2 24.7 20.3039 24.7 26.6C24.7 32.896 29.8039 38 36.0999 38C42.396 38 47.4999 32.896 47.4999 26.6C47.493 20.3067 42.3932 15.2069 36.0999 15.2ZM36.0999 36.1C30.8531 36.1 26.6 31.8468 26.6 26.6C26.6 21.3531 30.8531 17.1 36.0999 17.1C41.3467 17.1 45.5999 21.3531 45.5999 26.6C45.5944 31.8444 41.3444 36.0944 36.0999 36.1Z" fill="#4CB848"/>
<path d="M48.4499 0C43.7277 0 39.8999 3.82783 39.8999 8.55C39.8999 13.2722 43.7277 17.1 48.4499 17.1C53.1721 17.1 56.9999 13.2722 56.9999 8.55C56.9948 3.83015 53.1698 0.00510255 48.4499 0ZM48.4499 15.2C44.777 15.2 41.7999 12.2229 41.7999 8.55C41.7999 4.8771 44.777 1.9 48.4499 1.9C52.1228 1.9 55.0999 4.8771 55.0999 8.55C55.0957 12.221 52.1209 15.1958 48.4499 15.2Z" fill="#4CB848"/>
<path d="M48.4501 5.7001C48.9747 5.7001 49.4001 6.12546 49.4001 6.6501H51.3001C51.295 5.44683 50.5347 4.37622 49.4001 3.97498V2.8501H47.5001V3.97498C46.1925 4.4356 45.4076 5.772 45.6423 7.13855C45.8775 8.5051 47.0636 9.50288 48.4501 9.5001C48.9747 9.5001 49.4001 9.92546 49.4001 10.4501C49.4001 10.9747 48.9747 11.4001 48.4501 11.4001C47.9255 11.4001 47.5001 10.9747 47.5001 10.4501H45.6001C45.6052 11.6534 46.3655 12.724 47.5001 13.1252V14.2501H49.4001V13.1252C50.7077 12.6646 51.4926 11.3282 51.2579 9.96165C51.0227 8.59509 49.8366 7.59731 48.4501 7.6001C47.9255 7.6001 47.5001 7.17473 47.5001 6.6501C47.5001 6.12546 47.9255 5.7001 48.4501 5.7001Z" fill="#4CB848"/>
<path d="M36.1001 21.8501C37.1493 21.8501 38.0001 22.7008 38.0001 23.7501H39.9001C39.8936 22.0226 38.7228 20.5169 37.0501 20.085V18.05H35.1501V20.085C33.2992 20.5614 32.0918 22.3404 32.3334 24.2362C32.5747 26.1325 34.1889 27.5524 36.1001 27.5501C37.1493 27.5501 38.0001 28.4008 38.0001 29.4501C38.0001 30.4993 37.1493 31.3501 36.1001 31.3501C35.0508 31.3501 34.2001 30.4993 34.2001 29.4501H32.3C32.3065 31.1775 33.4773 32.6832 35.1501 33.1151V35.1501H37.0501V33.1151C38.9009 32.6387 40.1083 30.8597 39.8667 28.9639C39.6254 27.0676 38.0112 25.6477 36.1001 25.6501C35.0508 25.6501 34.2001 24.7993 34.2001 23.7501C34.2001 22.7008 35.0508 21.8501 36.1001 21.8501Z" fill="#4CB848"/>
</g>
<defs>
<clipPath id="clip0_47_121">
<rect width="57" height="57" fill="white"/>
</clipPath>
</defs>
</svg>
