<svg width="54" height="54" viewBox="0 0 54 54" fill="none" xmlns="http://www.w3.org/2000/svg">
<g clip-path="url(#clip0_47_130)">
<path d="M30.5998 0H12.5999C10.1185 0 8.09985 2.01867 8.09985 4.50004V36.9C8.09985 39.3813 10.1185 41.4001 12.5999 41.4001H28.7999V39.6H12.5999C11.1113 39.6 9.89989 38.3886 9.89989 36.9V4.50004C9.89989 3.01145 11.1113 1.80004 12.5999 1.80004H30.5999C32.0885 1.80004 33.2999 3.01145 33.2999 4.50004V30.6001H35.0999V4.50004C35.0999 2.01867 33.0812 0 30.5998 0Z" fill="#4CB848"/>
<path d="M43.732 23.9725L34.903 12.9385L33.4963 14.0635L42.3253 25.0966C43.471 26.5276 44.101 28.3258 44.1001 30.1591V52.2001H30.9332C26.2838 52.2001 22.5002 48.4173 22.5002 43.7671V40.5001H20.7002V43.7671C20.7002 49.4091 25.2911 54.0001 30.9332 54.0001H45.0002C45.4979 54.0001 45.9002 53.5978 45.9002 53.1001V30.16C45.9011 27.9208 45.1316 25.723 43.732 23.9725Z" fill="#4CB848"/>
<path d="M23.3965 21.2247C24.0282 21.2427 24.616 21.5054 25.0488 21.9644L37.144 34.8164L38.4553 33.5826L26.3583 20.7296C25.5942 19.9205 24.5601 19.457 23.4477 19.4255C22.3236 19.3877 21.277 19.7972 20.4777 20.5523C20.4678 20.5622 20.3958 20.6306 20.3868 20.6405C18.8488 22.1831 18.7452 24.6041 20.1483 26.2763L27.9001 35.4293V38.2139C27.8991 43.1873 31.0267 47.699 35.6842 49.4432L36.316 47.7575C32.3577 46.2752 29.6992 42.4403 29.7 38.2139V35.0999C29.7 34.8875 29.6244 34.6805 29.4867 34.5177L21.5245 25.1153C20.728 24.1667 20.7865 22.7888 21.7045 21.8699C22.1634 21.4362 22.7628 21.221 23.3965 21.2247Z" fill="#4CB848"/>
<path d="M29.6999 1.80005H27.8999V24.3H29.6999V1.80005Z" fill="#4CB848"/>
<path d="M25.1999 29.7H23.3999V40.4999H25.1999V29.7Z" fill="#4CB848"/>
<path d="M25.1999 0.899902H23.3999V20.6999H25.1999V0.899902Z" fill="#4CB848"/>
<path d="M14.4001 4.5H12.6001V16.2H14.4001V4.5Z" fill="#4CB848"/>
<path d="M18.9001 4.5H17.1001V11.7H18.9001V4.5Z" fill="#4CB848"/>
<path d="M18.9001 29.7H13.5001C13.0033 29.7 12.6001 30.1022 12.6001 30.5999V35.9999C12.6001 36.4976 13.0033 36.8999 13.5001 36.8999H18.9001C19.3968 36.8999 19.8 36.4976 19.8 35.9999V30.5999C19.8 30.1022 19.3968 29.7 18.9001 29.7ZM18.0001 35.0999H14.4001V31.5H18.0001V35.0999Z" fill="#4CB848"/>
</g>
<defs>
<clipPath id="clip0_47_130">
<rect width="54" height="54" fill="white"/>
</clipPath>
</defs>
</svg>
