<svg width="71" height="71" viewBox="0 0 71 71" fill="none" xmlns="http://www.w3.org/2000/svg">
<path d="M8.875 39.9085C9.48765 39.9085 9.98438 40.4052 9.98438 41.0179V48.7913H11.7494C12.1844 44.9435 15.6562 42.177 19.5038 42.6119C22.7523 42.9791 25.3158 45.5427 25.6831 48.7913H48.8125V16.6194H9.98438V20.1084C9.98438 20.721 9.48765 21.2177 8.875 21.2177C8.26235 21.2177 7.76562 20.721 7.76562 20.1084V15.51C7.76562 14.8974 8.26235 14.4006 8.875 14.4006H49.9219C50.5345 14.4006 51.0312 14.8974 51.0312 15.51V16.6194H63.7358C66.5208 16.623 68.7776 18.8797 68.7812 21.6648V23.2756C68.7812 23.8883 68.2845 24.385 67.6719 24.385H66.3817L67.2281 34.5524C69.4434 35.129 70.9922 37.1256 71 39.4148V48.7913C71 49.4039 70.5033 49.9006 69.8906 49.9006H67.6441C67.34 53.8678 63.8774 56.8373 59.9103 56.5332C56.3658 56.2615 53.5495 53.4451 53.2777 49.9006C53.2677 49.9006 53.26 49.9062 53.25 49.9062H51.0312C51.0312 50.5188 50.5345 51.0156 49.9219 51.0156H25.5822C24.7919 54.8075 21.0772 57.2408 17.2852 56.4505C14.5538 55.8813 12.4196 53.747 11.8503 51.0156H8.875C8.26235 51.0156 7.76562 50.5188 7.76562 49.9062V41.0179C7.76562 40.4051 8.26235 39.9085 8.875 39.9085ZM60.4609 54.3381C63.218 54.3381 65.4531 52.103 65.4531 49.3459C65.4531 46.5889 63.218 44.3538 60.4609 44.3538C57.7039 44.3538 55.4688 46.5889 55.4688 49.3459C55.4718 52.1018 57.7051 54.3351 60.4609 54.3381ZM51.0312 47.6819H53.25C53.315 47.6887 53.3794 47.7016 53.4419 47.7207C54.3341 43.8444 58.1998 41.4254 62.0759 42.3176C64.7487 42.9328 66.84 45.0126 67.47 47.6819H68.7812V39.4148C68.7794 37.8545 67.5149 36.5899 65.9546 36.5881H51.0312V47.6819ZM51.0312 34.3694H64.9872L64.1552 24.385H51.0312V34.3694ZM51.0312 22.1663H66.5625V21.6648C66.5607 20.1045 65.2961 18.8399 63.7358 18.8381H51.0312V22.1663ZM13.9289 49.8563C14.0715 52.3942 16.1733 54.3779 18.7152 54.3736H18.7163C21.0439 54.3685 23.0313 52.6921 23.4289 50.3987C23.2345 50.059 23.2567 49.6369 23.4855 49.3193C23.3372 46.6804 21.0777 44.6612 18.4386 44.8094C15.7997 44.9577 13.7805 47.2172 13.9289 49.8563Z" fill="#4CB848"/>
<path d="M9.98438 23.2756H25.5156C26.1283 23.2756 26.625 23.7724 26.625 24.385C26.625 24.9977 26.1283 25.4944 25.5156 25.4944H9.98438C9.37172 25.4944 8.875 24.9977 8.875 24.385C8.875 23.7724 9.37172 23.2756 9.98438 23.2756Z" fill="#4CB848"/>
<path d="M7.76562 35.4788H32.1719C32.7845 35.4788 33.2812 35.9755 33.2812 36.5881C33.2812 37.2008 32.7845 37.6975 32.1719 37.6975H7.76562C7.15297 37.6975 6.65625 37.2008 6.65625 36.5881C6.65625 35.9755 7.15297 35.4788 7.76562 35.4788Z" fill="#4CB848"/>
<path d="M9.98438 28.8225H22.1875C22.8002 28.8225 23.2969 29.3192 23.2969 29.9319C23.2969 30.5445 22.8002 31.0413 22.1875 31.0413H9.98438C9.37172 31.0413 8.875 30.5445 8.875 29.9319C8.875 29.3192 9.37172 28.8225 9.98438 28.8225Z" fill="#4CB848"/>
<path d="M5.54688 25.4944H3.32812C2.71547 25.4944 2.21875 24.9977 2.21875 24.385C2.21875 23.7724 2.71547 23.2756 3.32812 23.2756H5.54688C6.15953 23.2756 6.65625 23.7724 6.65625 24.385C6.65625 24.9977 6.15953 25.4944 5.54688 25.4944Z" fill="#4CB848"/>
<path d="M2.21875 35.4788H4.4375C5.05015 35.4788 5.54688 35.9755 5.54688 36.5881C5.54688 37.2008 5.05015 37.6975 4.4375 37.6975H2.21875C1.6061 37.6975 1.10938 37.2008 1.10938 36.5881C1.10938 35.9755 1.6061 35.4788 2.21875 35.4788Z" fill="#4CB848"/>
<path d="M1.10938 28.8225H5.54688C6.15953 28.8225 6.65625 29.3192 6.65625 29.9319C6.65625 30.5445 6.15953 31.0413 5.54688 31.0413H1.10938C0.496723 31.0413 0 30.5445 0 29.9319C0 29.3192 0.496723 28.8225 1.10938 28.8225Z" fill="#4CB848"/>
</svg>
