<svg width="56" height="56" viewBox="0 0 56 56" fill="none" xmlns="http://www.w3.org/2000/svg">
<g clip-path="url(#clip0_49_431)">
<path d="M51.688 23.0129H40.789C40.236 23.0129 39.789 23.4599 39.789 24.0129C39.789 24.5659 40.236 25.0129 40.789 25.0129H49.891L52.79 52.0129H2.268L5.671 25.0129H14.789C15.342 25.0129 15.789 24.5659 15.789 24.0129C15.789 23.4599 15.342 23.0129 14.789 23.0129H3.907L0 54.0129H55.017L51.688 23.0129Z" fill="#4CB848"/>
<path d="M26.654 38.968C26.507 39.055 26.35 39.132 26.209 39.223C25.989 39.365 25.774 39.514 25.563 39.668C25.118 39.995 25.022 40.621 25.348 41.066C25.544 41.333 25.848 41.474 26.156 41.474C26.361 41.474 26.568 41.411 26.747 41.281C26.925 41.15 27.106 41.024 27.295 40.902C27.616 40.694 27.957 40.499 28.309 40.321C28.777 40.084 28.967 39.53 28.771 39.052C28.779 39.044 28.789 39.038 28.796 39.03C30.605 37.114 36.701 29.934 39.225 17.972C39.737 15.546 39.852 13.218 39.567 11.053C38.707 4.47795 34.622 1.00195 27.754 1.00195C20.888 1.00195 16.803 4.47795 15.941 11.053C15.657 13.219 15.772 15.547 16.284 17.972C18.783 29.818 24.783 36.97 26.654 38.968ZM17.924 11.314C18.657 5.72195 21.873 3.00295 27.755 3.00295C33.638 3.00295 36.853 5.72195 37.585 11.314C37.84 13.254 37.733 15.357 37.269 17.561C35 28.314 29.59 35.137 27.755 37.207C25.918 35.135 20.509 28.309 18.241 17.561C17.776 15.357 17.67 13.255 17.924 11.314Z" fill="#4CB848"/>
<path d="M27.7549 19.9249C31.8059 19.9249 35.1009 16.6299 35.1009 12.5789C35.1009 8.52791 31.8059 5.23291 27.7549 5.23291C23.7039 5.23291 20.4089 8.52791 20.4089 12.5789C20.4089 16.6299 23.7039 19.9249 27.7549 19.9249ZM27.7549 7.23391C30.7019 7.23391 33.1009 9.63191 33.1009 12.5799C33.1009 15.5279 30.7029 17.9259 27.7549 17.9259C24.8069 17.9259 22.4089 15.5279 22.4089 12.5799C22.4089 9.63191 24.8079 7.23391 27.7549 7.23391Z" fill="#4CB848"/>
<path d="M31.4281 37.1699C30.8881 37.2839 30.5441 37.8159 30.6591 38.3569C30.7591 38.8269 31.1741 39.1479 31.6361 39.1479C31.7051 39.1479 31.7761 39.1409 31.8461 39.1259C32.4321 39.0019 33.0671 38.8969 33.7321 38.8129C34.2801 38.7459 34.6701 38.2459 34.6011 37.6979C34.5331 37.1489 34.0381 36.7529 33.4861 36.8289C32.7631 36.9179 32.0701 37.0329 31.4281 37.1699Z" fill="#4CB848"/>
<path d="M36.5991 37.5759C36.6211 38.1129 37.0651 38.5329 37.5971 38.5329C37.6121 38.5329 37.6261 38.5329 37.6411 38.5319L39.6421 38.4489C40.1931 38.4239 40.6211 37.9559 40.5951 37.4049C40.5701 36.8519 40.0561 36.4209 39.5511 36.4509L37.5551 36.5339C37.0031 36.5569 36.5751 37.0229 36.5991 37.5759Z" fill="#4CB848"/>
<path d="M22.433 42.177C21.919 42.565 21.388 42.938 20.853 43.284C20.39 43.585 20.258 44.204 20.559 44.668C20.75 44.963 21.072 45.123 21.399 45.123C21.586 45.123 21.774 45.071 21.943 44.962C22.516 44.59 23.087 44.19 23.638 43.774C24.078 43.441 24.166 42.814 23.834 42.373C23.501 41.936 22.876 41.844 22.433 42.177Z" fill="#4CB848"/>
<path d="M44.7199 35.5829C44.3819 35.8199 43.9429 35.9919 43.3739 36.1089C42.8329 36.2199 42.4849 36.7499 42.5969 37.2909C42.6949 37.7639 43.1109 38.0889 43.5759 38.0889C43.6429 38.0889 43.7109 38.0819 43.7789 38.0679C44.6209 37.8939 45.3049 37.6159 45.8749 37.2149L46.0089 37.1169C46.4489 36.7829 46.5359 36.1559 46.2029 35.7159C45.8689 35.2759 45.2429 35.1899 44.8019 35.5219L44.7199 35.5829Z" fill="#4CB848"/>
<path d="M8.86002 43.4019C9.00502 42.8689 8.68902 42.3199 8.15602 42.1759C7.62702 42.0269 7.07402 42.3449 6.93002 42.8799C6.80402 43.3439 6.72902 43.8179 6.70502 44.2849C6.70002 44.3999 6.69702 44.5159 6.69702 44.6379C6.69802 44.8339 6.70702 45.0299 6.72602 45.2249C6.77902 45.7399 7.21302 46.1229 7.72002 46.1229C7.75302 46.1229 7.78702 46.1209 7.82302 46.1179C8.37202 46.0609 8.77202 45.5709 8.71702 45.0209C8.70302 44.8899 8.69802 44.7569 8.69702 44.6309C8.69702 44.5479 8.70002 44.4649 8.70402 44.3829C8.72002 44.0589 8.77202 43.7279 8.86002 43.4019Z" fill="#4CB848"/>
<path d="M44.698 27.81C43.904 27.704 43.094 27.769 42.312 27.991C41.78 28.14 41.471 28.693 41.622 29.224C41.746 29.665 42.147 29.953 42.583 29.953C42.674 29.953 42.765 29.941 42.855 29.915C43.375 29.769 43.91 29.723 44.43 29.793C44.992 29.863 45.482 29.482 45.555 28.936C45.629 28.387 45.245 27.884 44.698 27.81Z" fill="#4CB848"/>
<path d="M46.688 32.7639C46.525 33.2909 46.821 33.8519 47.348 34.0139C47.447 34.0449 47.545 34.0589 47.643 34.0589C48.071 34.0589 48.466 33.7839 48.598 33.3539C48.697 33.0359 48.758 32.7129 48.781 32.3909C48.786 32.3079 48.789 32.2239 48.789 32.1409C48.789 31.6729 48.703 31.2039 48.534 30.7489C48.342 30.2299 47.763 29.9679 47.249 30.1589C46.73 30.3509 46.467 30.9269 46.659 31.4439C46.745 31.6759 46.789 31.9109 46.789 32.1399L46.786 32.2569C46.774 32.4229 46.742 32.5889 46.688 32.7639Z" fill="#4CB848"/>
<path d="M17.4811 45.1639C16.8951 45.4389 16.2981 45.6939 15.7071 45.9229C15.1921 46.1209 14.9361 46.6999 15.1351 47.2159C15.2881 47.6119 15.6661 47.8559 16.0681 47.8559C16.1881 47.8559 16.3101 47.8349 16.4281 47.7889C17.0631 47.5439 17.7031 47.2699 18.3311 46.9759C18.8311 46.7419 19.0461 46.1459 18.8111 45.6459C18.5781 45.1449 17.9841 44.9279 17.4811 45.1639Z" fill="#4CB848"/>
<path d="M10.201 41.001C10.362 41.001 10.526 40.962 10.679 40.879C10.967 40.722 11.274 40.624 11.59 40.59C11.725 40.574 11.863 40.574 11.996 40.592C12.559 40.665 13.046 40.279 13.118 39.732C13.19 39.184 12.805 38.682 12.258 38.61C11.96 38.571 11.657 38.569 11.367 38.602C10.793 38.665 10.239 38.841 9.72104 39.123C9.23604 39.388 9.05704 39.994 9.32204 40.479C9.50404 40.813 9.84704 41.001 10.201 41.001Z" fill="#4CB848"/>
<path d="M9.99306 48.842C10.2091 48.898 10.4291 48.94 10.6471 48.966C10.9031 48.997 11.1591 49.013 11.4161 49.013C11.7291 49.013 12.0431 48.991 12.3561 48.951C12.9041 48.882 13.2931 48.382 13.2231 47.834C13.1531 47.286 12.6561 46.9 12.1061 46.967C11.7021 47.019 11.2941 47.031 10.8901 46.982C10.7581 46.965 10.6261 46.94 10.4961 46.907C9.96106 46.764 9.41606 47.088 9.27606 47.623C9.13906 48.158 9.45906 48.704 9.99306 48.842Z" fill="#4CB848"/>
</g>
<defs>
<clipPath id="clip0_49_431">
<rect width="55.017" height="55.017" fill="white"/>
</clipPath>
</defs>
</svg>
