<svg width="60" height="60" viewBox="0 0 60 60" fill="none" xmlns="http://www.w3.org/2000/svg">
<path d="M8.13559 43.9395C8.13559 47.3041 10.8726 50.0412 14.2373 50.0412C17.6019 50.0412 20.339 47.3041 20.339 43.9395C20.339 40.5748 17.6019 37.8378 14.2373 37.8378C10.8726 37.8378 8.13559 40.5748 8.13559 43.9395ZM18.3051 43.9395C18.3051 46.1831 16.4807 48.0073 14.2373 48.0073C11.9939 48.0073 10.1695 46.1829 10.1695 43.9395C10.1695 41.6961 11.9939 39.8717 14.2373 39.8717C16.4807 39.8717 18.3051 41.6961 18.3051 43.9395ZM45.7627 37.8378C42.3981 37.8378 39.661 40.5748 39.661 43.9395C39.661 47.3041 42.3981 50.0412 45.7627 50.0412C49.1274 50.0412 51.8644 47.3041 51.8644 43.9395C51.8644 40.5748 49.1274 37.8378 45.7627 37.8378ZM45.7627 48.0073C43.5193 48.0073 41.6949 46.1829 41.6949 43.9395C41.6949 41.6961 43.5193 39.8717 45.7627 39.8717C48.0061 39.8717 49.8305 41.6961 49.8305 43.9395C49.8305 46.1831 48.0061 48.0073 45.7627 48.0073ZM55.8538 33.908C55.8439 33.8972 55.8404 33.8827 55.8299 33.8722C55.8195 33.8618 55.8049 33.8586 55.7942 33.8484C53.2187 31.2877 49.673 29.7022 45.7627 29.7022C45.3423 29.7022 44.9288 29.7292 44.5177 29.7652L44.373 28.6852H51.8545C54.6639 28.6852 56.9492 26.4041 56.9492 23.6005V22.5835C56.9492 19.7799 54.6639 17.4988 51.8545 17.4988H47.7966V11.3971C47.7966 10.8352 47.3416 10.3801 46.7797 10.3801H42.7119C42.1499 10.3801 41.6949 10.8352 41.6949 11.3971V17.4988H36.4454L34.4293 15.876L32.4901 10.0582C32.3521 9.643 31.9636 9.3629 31.5257 9.3629H14.2373C13.6754 9.3629 13.2203 9.81791 13.2203 10.3799V16.4815V17.4985H10.4057L9.31729 14.1347C9.18218 13.7146 8.7908 13.4307 8.35002 13.4307H3.17288C2.61094 13.4307 2.15593 13.8857 2.15593 14.4476C2.15593 15.0096 2.61094 15.4646 3.17288 15.4646H7.61027L8.26867 17.4985H7.11864C6.55671 17.4985 6.1017 17.9535 6.1017 18.5154V23.6002C6.1017 26.4038 8.38693 28.6849 11.1963 28.6849H15.2952L15.086 29.7449C14.8036 29.728 14.5235 29.7019 14.2373 29.7019C10.327 29.7019 6.7816 31.2877 4.20581 33.8481C4.19506 33.858 4.18053 33.8615 4.17007 33.872C4.15961 33.8824 4.15642 33.8969 4.14625 33.9077C1.58586 36.4838 0 40.0294 0 43.9395C0 47.8495 1.58586 51.3952 4.14625 53.9709C4.15613 53.9817 4.15932 53.9962 4.17007 54.0067C4.18053 54.0171 4.19506 54.0203 4.20581 54.0305C6.78131 56.5909 10.327 58.1768 14.2373 58.1768C18.1476 58.1768 21.693 56.5909 24.2688 54.0305C24.2795 54.0206 24.294 54.0171 24.3045 54.0067C24.315 53.9962 24.3182 53.9817 24.3283 53.9709C26.8887 51.3952 28.4746 47.8495 28.4746 43.9395C28.4746 40.0294 26.8887 36.4838 24.3283 33.908C24.3185 33.8972 24.315 33.8827 24.3045 33.8722C24.294 33.8618 24.2795 33.8586 24.2688 33.8484C22.3412 31.9322 19.8712 30.5619 17.1109 29.9939L17.3692 28.6852H42.3211L42.5096 30.0918C39.9045 30.704 37.569 32.022 35.7318 33.8484C35.7211 33.8583 35.7065 33.8618 35.6961 33.8722C35.6856 33.8827 35.6824 33.8972 35.6723 33.908C33.1116 36.4835 31.5257 40.0292 31.5257 43.9395C31.5257 47.8498 33.1116 51.3952 35.672 53.9709C35.6818 53.9817 35.6853 53.9962 35.6958 54.0067C35.7062 54.0171 35.7208 54.0203 35.7315 54.0305C38.307 56.5909 41.8527 58.1768 45.763 58.1768C49.6733 58.1768 53.2187 56.5909 55.7945 54.0305C55.8052 54.0206 55.8198 54.0171 55.8302 54.0067C55.8404 53.9962 55.8436 53.9817 55.8538 53.9709C58.4141 51.3954 60 47.8495 60 43.9395C60 40.0294 58.4141 36.4838 55.8538 33.908ZM43.7288 12.414H45.7627V17.4988H43.7288V12.414ZM15.2542 11.3971H30.7926L32.1481 15.4649H15.2542V11.3971ZM22.1088 34.6297L21.428 35.3105C21.0311 35.7074 21.0311 36.351 21.4286 36.7485C21.6273 36.9472 21.8874 37.0463 22.1477 37.0463C22.408 37.0463 22.6681 36.9469 22.8668 36.7485L23.5476 36.0677C25.1428 37.9514 26.1734 40.3214 26.3895 42.9225H25.4237C24.8618 42.9225 24.4068 43.3775 24.4068 43.9395C24.4068 44.5014 24.8618 44.9564 25.4237 44.9564H26.3892C26.1731 47.5575 25.1425 49.9278 23.5473 51.8112L22.8665 51.1305C22.4693 50.7333 21.8258 50.7333 21.4286 51.1305C21.0314 51.5276 21.0314 52.1712 21.4286 52.5684L22.1093 53.2492C20.2257 54.8444 17.8556 55.875 15.2545 56.0911V55.1256C15.2545 54.5637 14.7995 54.1087 14.2376 54.1087C13.6756 54.1087 13.2206 54.5637 13.2206 55.1256V56.0911C10.6196 55.875 8.2492 54.8444 6.36581 53.2492L7.04659 52.5684C7.44378 52.1712 7.44378 51.5276 7.04659 51.1305C6.64939 50.7333 6.00581 50.7333 5.60862 51.1305L4.92785 51.8112C3.33269 49.9276 2.30208 47.5575 2.08591 44.9564H3.05085C3.61278 44.9564 4.0678 44.5014 4.0678 43.9395C4.0678 43.3775 3.61278 42.9225 3.05085 42.9225H2.08533C2.3015 40.3214 3.33211 37.9511 4.92726 36.0677L5.60804 36.7485C5.80678 36.9472 6.06683 37.0463 6.32717 37.0463C6.58722 37.0463 6.84755 36.9469 7.04601 36.7485C7.4432 36.3513 7.4432 35.7077 7.04601 35.3105L6.36523 34.6297C8.24891 33.0346 10.619 32.004 13.22 31.7878V32.7533C13.22 33.3152 13.6751 33.7703 14.237 33.7703C14.7989 33.7703 15.2539 33.3152 15.2539 32.7533V31.7878C17.855 32.004 20.2254 33.0346 22.1088 34.6297ZM11.1963 26.6513C9.50906 26.6513 8.13559 25.2828 8.13559 23.6005V19.5327H14.2373C14.7992 19.5327 15.2542 19.0777 15.2542 18.5157V17.4988H33.2008L35.4491 19.3084C35.6298 19.4534 35.8541 19.5327 36.0866 19.5327H42.7119H46.7797H51.8545C53.1824 19.5327 54.3045 20.3855 54.7273 21.5666H50.8475V23.6005H54.9153C54.9153 25.2828 53.5418 26.6513 51.8545 26.6513H11.1963ZM55.0727 51.8115L54.392 51.1307C53.9948 50.7336 53.3512 50.7336 52.954 51.1307C52.5568 51.5279 52.5568 52.1715 52.954 52.5687L53.6348 53.2495C51.7511 54.8446 49.381 55.8753 46.78 56.0914V55.1259C46.78 54.564 46.3249 54.109 45.763 54.109C45.2011 54.109 44.7461 54.564 44.7461 55.1259V56.0914C42.145 55.8753 39.7746 54.8446 37.8912 53.2495L38.572 52.5687C38.9692 52.1715 38.9692 51.5279 38.572 51.1307C38.1748 50.7336 37.5312 50.7336 37.134 51.1307L36.4533 51.8115C34.8581 49.9278 33.8275 47.5578 33.6113 44.9567H34.5763C35.1382 44.9567 35.5932 44.5017 35.5932 43.9398C35.5932 43.3778 35.1382 42.9228 34.5763 42.9228H33.6108C33.8269 40.3217 34.8575 37.9514 36.4527 36.068L37.1335 36.7488C37.3322 36.9475 37.5923 37.0466 37.8526 37.0466C38.1129 37.0466 38.373 36.9472 38.5717 36.7488C38.9689 36.3516 38.9689 35.708 38.5717 35.3108L37.8909 34.63C39.4751 33.2885 41.4032 32.3471 43.524 31.9517C43.567 31.9572 43.6065 31.9749 43.6507 31.9749C43.6954 31.9749 43.741 31.972 43.7866 31.9659C43.8904 31.952 43.9807 31.9095 44.0708 31.868C44.2945 31.8366 44.5183 31.807 44.7461 31.7881V32.7536C44.7461 33.3155 45.2011 33.7706 45.763 33.7706C46.3249 33.7706 46.78 33.3155 46.78 32.7536V31.7881C49.381 32.0043 51.7514 33.0349 53.6348 34.63L52.954 35.3108C52.5568 35.708 52.5568 36.3516 52.954 36.7488C53.1527 36.9475 53.4128 37.0466 53.6731 37.0466C53.9335 37.0466 54.1935 36.9472 54.3923 36.7488L55.073 36.068C56.6682 37.9517 57.6988 40.3217 57.915 42.9228H56.9492C56.3872 42.9228 55.9322 43.3778 55.9322 43.9398C55.9322 44.5017 56.3872 44.9567 56.9492 44.9567H57.9147C57.6985 47.5578 56.6679 49.9281 55.0727 51.8115ZM49.8302 4.87409L51.2682 6.31206L48.8133 8.76697L47.3753 7.329L49.8302 4.87409ZM41.6946 1.82324L44.1495 4.27816L42.7116 5.71612L40.2567 3.26121L41.6946 1.82324Z" fill="#4CB848"/>
</svg>
