<svg width="62" height="62" viewBox="0 0 62 62" fill="none" xmlns="http://www.w3.org/2000/svg">
<path d="M50.6743 8.28394H3.04175C1.36448 8.28394 0 9.64842 0 11.3257V42.3904C0 44.0676 1.36448 45.4321 3.04175 45.4321H33.0709C33.607 45.4321 34.0418 44.9975 34.0418 44.4613C34.0418 43.9252 33.6071 43.4905 33.0709 43.4905H3.04175C2.43507 43.4905 1.9415 42.9969 1.9415 42.3902V11.3257C1.9415 10.719 2.43507 10.2254 3.04175 10.2254H50.6743C51.281 10.2254 51.7746 10.719 51.7746 11.3257V24.7873C51.7746 25.3234 52.2092 25.7581 52.7454 25.7581C53.2815 25.7581 53.7162 25.3235 53.7162 24.7873V11.3257C53.7161 9.64842 52.3516 8.28394 50.6743 8.28394Z" fill="#4CB848"/>
<path d="M48.6034 26.9227C41.2164 26.9227 35.2068 32.9325 35.2068 40.3193C35.2068 47.7062 41.2165 53.7159 48.6034 53.7159C55.9902 53.7159 62 47.7063 62 40.3193C62 32.9324 55.9902 26.9227 48.6034 26.9227ZM48.6034 51.7744C42.287 51.7744 37.1483 46.6357 37.1483 40.3193C37.1483 34.003 42.287 28.8642 48.6034 28.8642C54.9198 28.8642 60.0585 34.003 60.0585 40.3193C60.0585 46.6357 54.9196 51.7744 48.6034 51.7744Z" fill="#4CB848"/>
<path d="M16.5031 15.5323H8.21917C7.11286 15.5323 6.21289 16.4323 6.21289 17.5386V23.7516C6.21289 24.8579 7.11286 25.7579 8.21917 25.7579H16.5031C17.6094 25.7579 18.5094 24.8579 18.5094 23.7516V17.5386C18.5094 16.4323 17.6094 15.5323 16.5031 15.5323ZM10.3548 23.8162H8.21917C8.18345 23.8162 8.15451 23.7873 8.15451 23.7516V17.5386C8.15451 17.5029 8.18345 17.474 8.21917 17.474H10.3549V23.8162H10.3548ZM16.5677 23.7516C16.5677 23.7873 16.5388 23.8162 16.5031 23.8162H12.2964V21.6159H13.3967C13.9327 21.6159 14.3675 21.1813 14.3675 20.645C14.3675 20.1088 13.9329 19.6742 13.3967 19.6742H12.2964V17.4738H16.5031C16.5388 17.4738 16.5677 17.5028 16.5677 17.5385V23.7516Z" fill="#4CB848"/>
<path d="M41.8727 14.4968C40.7264 14.4968 39.6594 14.8421 38.7689 15.4328C37.8521 14.8252 36.7722 14.4968 35.6598 14.4968C32.5552 14.4968 30.0293 17.0226 30.0293 20.1273C30.0293 23.232 32.5551 25.7578 35.6598 25.7578C36.8066 25.7578 37.8739 25.4123 38.7648 24.8212C39.6817 25.4282 40.7627 25.7578 41.8727 25.7578C44.9774 25.7578 47.5032 23.232 47.5032 20.1273C47.5032 17.0226 44.9775 14.4968 41.8727 14.4968ZM37.3108 23.4247C36.8136 23.6746 36.253 23.8162 35.6598 23.8162C33.6257 23.8162 31.9709 22.1613 31.9709 20.1273C31.9709 18.0933 33.6258 16.4383 35.6598 16.4383C36.2387 16.4383 36.8039 16.5748 37.313 16.8299C36.6403 17.7575 36.2423 18.8964 36.2423 20.1272C36.2423 21.3243 36.6231 22.4739 37.3108 23.4247ZM41.8727 23.8162C41.2948 23.8162 40.7291 23.6795 40.2198 23.4242C40.8924 22.4966 41.2903 21.3579 41.2903 20.1272C41.2903 19.5911 40.8557 19.1564 40.3195 19.1564C39.7833 19.1564 39.3487 19.591 39.3487 20.1272C39.3487 20.8582 39.1341 21.5399 38.7657 22.1136C38.3901 21.5264 38.1838 20.8397 38.1838 20.1272C38.1838 18.0931 39.8386 16.4382 41.8726 16.4382C43.9066 16.4382 45.5616 18.0931 45.5616 20.1272C45.5616 22.1613 43.9069 23.8162 41.8727 23.8162Z" fill="#4CB848"/>
<path d="M15.4676 31.0647H7.1837C6.64762 31.0647 6.21289 31.4993 6.21289 32.0355C6.21289 32.5717 6.6475 33.0063 7.1837 33.0063H15.4676C16.0037 33.0063 16.4384 32.5717 16.4384 32.0355C16.4384 31.4993 16.0037 31.0647 15.4676 31.0647Z" fill="#4CB848"/>
<path d="M32.0354 37.2776H7.1837C6.64762 37.2776 6.21289 37.7122 6.21289 38.2484C6.21289 38.7846 6.6475 39.2192 7.1837 39.2192H32.0355C32.5716 39.2192 33.0063 38.7846 33.0063 38.2484C33.0063 37.7122 32.5716 37.2776 32.0354 37.2776Z" fill="#4CB848"/>
<path d="M27.8936 31.0647H19.6097C19.0736 31.0647 18.6389 31.4993 18.6389 32.0355C18.6389 32.5717 19.0735 33.0063 19.6097 33.0063H27.8936C28.4297 33.0063 28.8644 32.5717 28.8644 32.0355C28.8644 31.4993 28.4297 31.0647 27.8936 31.0647Z" fill="#4CB848"/>
<path d="M34.1065 31.0647H32.0355C31.4994 31.0647 31.0647 31.4993 31.0647 32.0355C31.0647 32.5717 31.4993 33.0063 32.0355 33.0063H34.1065C34.6425 33.0063 35.0773 32.5717 35.0773 32.0355C35.0773 31.4993 34.6427 31.0647 34.1065 31.0647Z" fill="#4CB848"/>
<path d="M56.5381 35.491C56.1589 35.1119 55.5443 35.1119 55.1653 35.491L46.5322 44.1239L42.0412 39.6329C41.6621 39.2538 41.0474 39.2538 40.6684 39.6329C40.2892 40.0121 40.2892 40.6266 40.6684 41.0058L45.8459 46.1832C46.0354 46.3729 46.2839 46.4676 46.5322 46.4676C46.7806 46.4676 47.0291 46.3729 47.2186 46.1832L56.538 36.8639C56.9172 36.4847 56.9172 35.8702 56.5381 35.491Z" fill="#4CB848"/>
</svg>
