<svg width="46" height="54" viewBox="0 0 46 54" fill="none" xmlns="http://www.w3.org/2000/svg">
<path d="M11.2637 27.8424L12.5773 28.7615L17.8228 21.2642L16.5092 20.3451L11.2637 27.8424Z" fill="#4CB848"/>
<path d="M7.1559 43.7461L8.50708 44.6085L14.5435 35.1511L13.1923 34.2887L7.1559 43.7461Z" fill="#4CB848"/>
<path d="M32.3569 50.2896H32.3568H30.7537V52.3969H29.1506V49.2209H27.5474V52.3969H25.9443V48.1821H45.4805L35.3513 32.3116H41.7744L32.0423 18.4028H37.379L22.9998 0L8.62066 18.4029H13.9574L4.22535 32.3117H10.6485L0.519287 48.1822H20.0555V52.3969H11.2085V54H20.0554H25.9445H34.7914V52.3969H32.3568V50.2896H32.3569ZM20.0553 46.579H3.44415L12.5502 32.3117H19.117V30.7086H13.5735H12.1109H7.30367L15.914 18.4029H19.1171V16.7998H17.0357H15.4966H11.9077L22.9998 2.6036L34.0922 16.7997H30.5033H28.9642H21.2542V18.4028H30.0859L31.2076 20.0059H24.4605V21.6091H32.3293L38.6963 30.7086H33.889H32.4264H21.2543V32.3117H33.4496L34.4727 33.9148H24.4606V35.518H35.496L42.5558 46.5792H25.9445H20.0553V46.579ZM24.3414 52.3969H21.6584V48.1821H24.3414V52.3969Z" fill="#4CB848"/>
</svg>
