<svg width="54" height="54" viewBox="0 0 54 54" fill="none" xmlns="http://www.w3.org/2000/svg">
<g clip-path="url(#clip0_47_295)">
<path d="M36.6345 30.9845C36.0976 30.8812 34.6414 30.6009 33.977 30.4731C33.1752 30.3188 32.5932 29.6142 32.5932 28.7978V27.7995C33.1738 27.4438 33.7335 27.0303 34.2708 26.5582C36.1772 24.8824 37.3549 22.5057 37.5927 19.8589C38.9852 19.811 40.1006 18.6506 40.0947 17.2362L40.0863 15.228C40.0837 14.6055 39.8599 14.0095 39.4629 13.5418V11.0805C39.4629 10.6382 39.1043 10.2796 38.662 10.2796C38.2197 10.2796 37.8611 10.6382 37.8611 11.0805V12.796C30.5636 10.7444 23.4358 10.7443 16.1391 12.796V8.64282C16.1391 5.9539 17.9606 3.6184 20.5685 2.96322L25.0151 1.84631C26.3137 1.5202 27.6865 1.5202 28.985 1.84631L33.4316 2.96322C35.6117 3.51082 37.3056 5.28754 37.7468 7.48963C37.8337 7.92331 38.2559 8.20439 38.6895 8.11759C39.1232 8.03068 39.4044 7.60859 39.3175 7.17491C38.7553 4.36997 36.5982 2.10703 33.8218 1.40967L29.3752 0.292755C27.8214 -0.097585 26.1787 -0.097585 24.6247 0.292755L20.1782 1.40967C16.8568 2.24393 14.5372 5.21836 14.5372 8.64282V13.542C14.1402 14.0096 13.9164 14.6056 13.9137 15.2281L13.9054 17.2363C13.8995 18.6506 15.0148 19.811 16.4073 19.859C16.6452 22.506 17.8228 24.8825 19.7293 26.5583C20.2664 27.0305 20.8263 27.4438 21.4069 27.7996V28.7979C21.4069 29.5439 20.9488 30.2386 20.0305 30.4711L17.3657 30.9847C10.0127 32.3998 4.70801 38.8632 4.70801 46.3107V49.5702C4.70801 52.0128 6.69525 54.0002 9.13801 54.0002H44.8622C47.3048 54.0002 49.2922 52.0129 49.2922 49.5702V46.3107C49.2922 38.834 43.9594 32.3942 36.6345 30.9845ZM36.9057 32.6808C37.7702 32.8849 38.6007 33.1681 39.3907 33.521V42.5321C38.8644 42.1757 38.2301 41.9672 37.548 41.9672H36.9058V32.6808H36.9057ZM37.0999 14.2457C36.273 15.0601 35.3092 16.3393 33.3548 16.0017C31.2166 15.633 29.1086 15.4486 27.0001 15.4486C24.8921 15.4486 22.7837 15.633 20.6459 16.0016C18.7058 16.3365 17.7333 15.0671 16.897 14.2466C23.68 12.3979 30.316 12.3976 37.0999 14.2457ZM20.787 25.355C19.1746 23.9377 18.1839 21.9107 17.9971 19.6472C17.932 18.8589 17.2853 18.2619 16.4928 18.2585C15.9471 18.2562 15.5051 17.8006 15.5074 17.2428L15.5157 15.2346C15.5158 15.204 15.5181 15.1738 15.521 15.1436C16.7483 16.3312 18.1252 18.0619 20.918 17.5802C25.0108 16.8744 28.9899 16.8744 33.0825 17.5803C35.9778 18.0795 37.4514 16.1337 38.479 15.1394C38.4821 15.1709 38.4844 15.2027 38.4845 15.2346L38.4928 17.2428C38.4951 17.8006 38.0531 18.2561 37.5075 18.2585C36.715 18.2619 36.0683 18.8589 36.0032 19.6473C35.8164 21.9107 34.8257 23.9378 33.2133 25.3551C29.5246 28.5973 24.5129 28.6302 20.787 25.355ZM32.5325 31.5928L31.179 32.6802C28.8787 34.5282 25.5491 34.5163 23.2621 32.6516L21.7357 31.4072C23.1607 30.3023 22.9967 28.6646 23.0088 28.6101C25.6177 29.6722 28.351 29.685 30.9913 28.6101C31.0006 28.6466 30.833 30.5158 32.5325 31.5928ZM18.9015 32.3202L20.0496 32.0993L22.2498 33.8932C25.1203 36.2337 29.264 36.2736 32.1822 33.929L34.3613 32.1784L35.3038 32.3598V41.9673H18.9015V32.3202ZM12.4862 46.9184C11.9978 47.5078 11.7289 48.2541 11.7289 49.0197V52.3981H9.13801C7.57866 52.3981 6.30997 51.1294 6.30997 49.5701V46.8871H12.5122L12.4862 46.9184ZM13.2128 45.2851H6.34805C6.68839 40.6373 9.32269 36.5374 13.2127 34.2422V36.5584C13.2127 37.0007 13.5713 37.3593 14.0136 37.3593C14.456 37.3593 14.8146 37.0007 14.8146 36.5584V33.4314C15.6056 33.0931 16.4361 32.8246 17.2995 32.6343V41.9673H16.6478C15.9698 41.9673 15.3389 42.1733 14.8146 42.526V40.3027C14.8146 39.8604 14.456 39.5018 14.0136 39.5018C13.5713 39.5018 13.2127 39.8604 13.2127 40.3027V45.2851H13.2128ZM40.6696 52.3981H13.3306V49.0197C13.3306 48.1553 13.9231 47.7635 14.1986 47.3623C14.691 46.7679 14.956 46.0147 14.956 45.2609C14.956 44.3281 15.7149 43.5691 16.6478 43.5691H37.5478C38.4807 43.5691 39.2396 44.3281 39.2396 45.2609C39.2486 45.3211 39.1548 46.304 39.8715 47.2874C40.1723 47.7719 40.6694 48.1408 40.6694 48.9333V52.3981H40.6696ZM40.9925 45.2851V34.3656C44.7699 36.6825 47.3178 40.7195 47.6521 45.2851H40.9925ZM47.6902 49.57C47.6902 51.1293 46.4215 52.398 44.8622 52.398H42.2714V48.9333C42.2714 48.2315 42.0529 47.5607 41.6396 46.9934L41.5621 46.8871H47.6902V49.57Z" fill="#4CB848"/>
<path d="M24.0264 4.37256C22.9867 4.37256 22.1409 5.21842 22.1409 6.25813V7.64863C22.1409 8.68834 22.9867 9.5342 24.0264 9.5342H29.9734C31.0131 9.5342 31.859 8.68834 31.859 7.64863V6.25813C31.859 5.21842 31.0131 4.37256 29.9734 4.37256H24.0264ZM30.2571 6.25813V7.64863C30.2571 7.80504 30.1299 7.93234 29.9734 7.93234H24.0264C23.87 7.93234 23.7427 7.80515 23.7427 7.64863V6.25813C23.7427 6.10172 23.8699 5.97442 24.0264 5.97442H29.9734C30.1298 5.97442 30.2571 6.10172 30.2571 6.25813Z" fill="#4CB848"/>
</g>
<defs>
<clipPath id="clip0_47_295">
<rect width="54" height="54" fill="white"/>
</clipPath>
</defs>
</svg>
