<svg width="63" height="63" viewBox="0 0 63 63" fill="none" xmlns="http://www.w3.org/2000/svg">
<path d="M62.685 31.8151L54.285 22.3651C54.18 22.1551 53.8649 22.0501 53.5499 22.0501H46.1999V8.4001C46.1999 7.7701 45.7799 7.3501 45.15 7.3501H21V9.4501H44.1V23.1001V38.8501H19.95V40.9501H44.1V45.1501H23.1V47.2501H45.15C45.7799 47.2501 46.1999 46.8301 46.1999 46.2001V39.9001V24.1501H53.1299L59.6399 31.5001H52.5V33.6001H60.8999V46.2001H63V32.5501C63 32.2351 62.895 32.0251 62.685 31.8151Z" fill="#4CB848"/>
<path d="M14.6999 43.0503C11.2349 43.0503 8.3999 45.8853 8.3999 49.3503C8.3999 52.8153 11.2349 55.6503 14.6999 55.6503C18.1649 55.6503 20.9999 52.8153 20.9999 49.3503C20.9999 45.8853 18.1649 43.0503 14.6999 43.0503ZM14.6999 53.5503C12.3899 53.5503 10.4999 51.6603 10.4999 49.3503C10.4999 47.0403 12.3899 45.1503 14.6999 45.1503C17.0099 45.1503 18.8999 47.0403 18.8999 49.3503C18.8999 51.6603 17.0099 53.5503 14.6999 53.5503Z" fill="#4CB848"/>
<path d="M53.55 43.0503C50.085 43.0503 47.25 45.8853 47.25 49.3503C47.25 52.8153 50.085 55.6503 53.55 55.6503C57.015 55.6503 59.85 52.8153 59.85 49.3503C59.85 45.8853 57.015 43.0503 53.55 43.0503ZM53.55 53.5503C51.24 53.5503 49.35 51.6603 49.35 49.3503C49.35 47.0403 51.24 45.1503 53.55 45.1503C55.86 45.1503 57.75 47.0403 57.75 49.3503C57.75 51.6603 55.86 53.5503 53.55 53.5503Z" fill="#4CB848"/>
<path d="M55.65 36.75H52.5V38.85H55.65V36.75Z" fill="#4CB848"/>
<path d="M14.7001 51.45C15.8599 51.45 16.8001 50.5098 16.8001 49.35C16.8001 48.1902 15.8599 47.25 14.7001 47.25C13.5403 47.25 12.6001 48.1902 12.6001 49.35C12.6001 50.5098 13.5403 51.45 14.7001 51.45Z" fill="#4CB848"/>
<path d="M53.55 51.45C54.7097 51.45 55.65 50.5098 55.65 49.35C55.65 48.1902 54.7097 47.25 53.55 47.25C52.3902 47.25 51.45 48.1902 51.45 49.35C51.45 50.5098 52.3902 51.45 53.55 51.45Z" fill="#4CB848"/>
<path d="M6.3 45.1499H0V47.2499H6.3V45.1499Z" fill="#4CB848"/>
<path d="M17.85 7.3501H0V9.4501H17.85V7.3501Z" fill="#4CB848"/>
<path d="M23.0999 15.75H3.1499V17.85H23.0999V15.75Z" fill="#4CB848"/>
<path d="M31.5 24.1499H11.55V26.2499H31.5V24.1499Z" fill="#4CB848"/>
<path d="M14.7 33.6001H0V35.7001H14.7V33.6001Z" fill="#4CB848"/>
<path d="M8.39995 24.1499H4.19995V26.2499H8.39995V24.1499Z" fill="#4CB848"/>
</svg>
