<svg width="64" height="64" viewBox="0 0 64 64" fill="none" xmlns="http://www.w3.org/2000/svg">
<g clip-path="url(#clip0_49_461)">
<path d="M63.3599 21.4266L32.4267 7.55995C32.2133 7.45332 31.8933 7.45332 31.5733 7.55995L0.639991 21.4266C0.213373 21.5334 0 21.96 0 22.3866V55.4533C0 56.0933 0.426618 56.5199 1.06661 56.5199H7.46665H16H32.0001H48.0001H56.5335H62.9335C63.5735 56.5199 64.0001 56.0933 64.0001 55.4533V22.3866C64 21.96 63.7866 21.64 63.3599 21.4266ZM12.7999 51.1866C12.7999 49.3733 14.1866 47.9866 15.9999 47.9866C17.8133 47.9866 19.1999 49.3733 19.1999 51.1866C19.1999 53 17.8133 54.3866 15.9999 54.3866C14.1867 54.3867 12.7999 53 12.7999 51.1866ZM12.7999 42.6533C12.7999 40.84 14.1866 39.4534 15.9999 39.4534C17.8133 39.4534 19.1999 40.84 19.1999 42.6533C19.1999 44.4667 17.8133 45.8533 15.9999 45.8533C14.1867 45.8533 12.7999 44.4667 12.7999 42.6533ZM48 45.8533H36.292C36.9064 45.0238 37.282 44.003 37.3276 42.8839C37.3312 42.8071 37.3334 42.7302 37.3334 42.6533C37.3334 42.5765 37.3313 42.4996 37.3276 42.4228C37.282 41.3037 36.9064 40.2829 36.292 39.4534H48C49.8133 39.4534 51.1999 40.84 51.1999 42.6533C51.1999 44.4667 49.8133 45.8533 48 45.8533ZM21.3276 51.4173C21.3312 51.3405 21.3333 51.2636 21.3333 51.1867C21.3333 51.1098 21.3313 51.033 21.3276 50.9562C21.282 49.8371 20.9063 48.8162 20.292 47.9868H27.708C27.0936 48.8162 26.718 49.8371 26.6724 50.9562C26.6688 51.033 26.6666 51.1098 26.6666 51.1867C26.6666 51.2636 26.6687 51.3405 26.6724 51.4173C26.718 52.5364 27.0936 53.5572 27.708 54.3867H20.292C20.9063 53.5571 21.282 52.5362 21.3276 51.4173ZM28.8 51.1866C28.8 49.3733 30.1866 47.9866 31.9999 47.9866C33.8133 47.9866 35.1999 49.3733 35.1999 51.1866C35.1999 53 33.8133 54.3866 31.9999 54.3866C30.1866 54.3867 28.8 53 28.8 51.1866ZM35.2 42.6533C35.2 44.4667 33.8134 45.8533 32.0001 45.8533C30.1867 45.8533 28.8001 44.4667 28.8001 42.6533C28.8001 40.84 30.1867 39.4534 32.0001 39.4534C33.8133 39.4533 35.2 40.84 35.2 42.6533ZM26.6724 42.4227C26.6688 42.4994 26.6666 42.5763 26.6666 42.6532C26.6666 42.7301 26.6687 42.807 26.6724 42.8838C26.718 44.0028 27.0936 45.0237 27.708 45.8532H20.292C20.9063 45.0237 21.282 44.0028 21.3276 42.8838C21.3312 42.807 21.3333 42.7301 21.3333 42.6532C21.3333 42.5763 21.3313 42.4994 21.3276 42.4227C21.282 41.3036 20.9063 40.2827 20.292 39.4533H27.708C27.0936 40.2829 26.718 41.3037 26.6724 42.4227ZM36.292 54.3867C36.9064 53.5572 37.282 52.5364 37.3276 51.4173C37.3312 51.3405 37.3334 51.2636 37.3334 51.1867C37.3334 51.1098 37.3313 51.033 37.3276 50.9562C37.282 49.8371 36.9064 48.8162 36.292 47.9868H48C49.8133 47.9868 51.1999 49.3734 51.1999 51.1867C51.1999 53.0001 49.8133 54.3867 48 54.3867H36.292ZM52.292 54.3867C52.9482 53.5004 53.3333 52.3962 53.3333 51.1867C53.3333 49.4249 52.5161 47.8861 51.2332 46.92C52.5161 45.954 53.3333 44.4154 53.3333 42.6533C53.3333 39.6666 50.9866 37.32 48 37.32H31.9999H16C13.0133 37.32 10.6667 39.6668 10.6667 42.6533C10.6667 44.4152 11.4839 45.954 12.7668 46.92C11.4839 47.8861 10.6667 49.4249 10.6667 51.1867C10.6667 52.3962 11.0517 53.5005 11.7081 54.3867H8.53339V36.2533H55.4666V54.3866H52.292V54.3867ZM55.4666 34.12H8.53339V28.7867H55.4666V34.12ZM61.8667 54.3867H57.6V35.1867V27.72C57.6 27.0801 57.1733 26.6534 56.5334 26.6534H7.46665C6.82666 26.6534 6.40004 27.0801 6.40004 27.72V35.1867V54.3867H2.13335V23.0266L31.9999 9.69329L61.8667 23.0266V54.3867Z" fill="#4CB848"/>
<path d="M28.8001 14.9199C26.9867 14.9199 25.6001 16.3065 25.6001 18.1199V21.3198C25.6001 23.1332 26.9867 24.5198 28.8001 24.5198H32H35.2C37.0133 24.5198 38.3999 23.1332 38.3999 21.3198V18.1199C38.3999 16.3065 37.0133 14.9199 35.2 14.9199H32H28.8001ZM27.7333 21.32V18.12C27.7333 17.48 28.1599 17.0534 28.7999 17.0534H30.9333V22.3867H28.7999C28.1601 22.3866 27.7333 21.96 27.7333 21.32ZM36.2667 18.12V21.32C36.2667 21.96 35.8401 22.3866 35.2001 22.3866H33.0667V17.0533H35.2001C35.8401 17.0533 36.2667 17.48 36.2667 18.12Z" fill="#4CB848"/>
</g>
<defs>
<clipPath id="clip0_49_461">
<rect width="64" height="64" fill="white"/>
</clipPath>
</defs>
</svg>
